# Blender v2.91.0 OBJ File: 'more-planes.blend'
# www.blender.org
mtllib more-planes.mtl
o Plane_Plane.001
v -1.000000 0.000000 6.000000
v 1.000000 0.000000 6.000000
v -1.000000 0.000000 4.000000
v 1.000000 0.000000 4.000000
vt 0.000000 0.000000
vt 1.000000 0.000000
vt 1.000000 1.000000
vt 0.000000 1.000000
vn 0.0000 1.0000 0.0000
usemtl None
s off
f 1/1/1 2/2/1 4/3/1 3/4/1
o Plane.001_Plane.002
v -1.000000 0.000000 -9.000000
v 1.000000 0.000000 -9.000000
v -1.000000 0.000000 -11.000000
v 1.000000 0.000000 -11.000000
vt 0.000000 0.000000
vt 1.000000 0.000000
vt 1.000000 1.000000
vt 0.000000 1.000000
vn 0.0000 1.0000 0.0000
usemtl None
s off
f 5/5/2 6/6/2 8/7/2 7/8/2
o Plane.002_Plane.003
v -1.000000 0.000000 -14.000000
v 1.000000 0.000000 -14.000000
v -1.000000 0.000000 -16.000000
v 1.000000 0.000000 -16.000000
vt 0.000000 0.000000
vt 1.000000 0.000000
vt 1.000000 1.000000
vt 0.000000 1.000000
vn 0.0000 1.0000 0.0000
usemtl None
s off
f 9/9/3 10/10/3 12/11/3 11/12/3
o Plane.003_Plane.004
v -1.000000 0.000000 -9.000000
v 1.000000 0.000000 -9.000000
v -1.000000 0.000000 -11.000000
v 1.000000 0.000000 -11.000000
vt 0.000000 0.000000
vt 1.000000 0.000000
vt 1.000000 1.000000
vt 0.000000 1.000000
vn 0.0000 1.0000 0.0000
usemtl None
s off
f 13/13/4 14/14/4 16/15/4 15/16/4
o Plane.005_Plane.006
v -11.731503 0.000000 -9.000000
v -9.731503 0.000000 -9.000000
v -11.731503 0.000000 -11.000000
v -9.731503 0.000000 -11.000000
vt 0.000000 0.000000
vt 1.000000 0.000000
vt 1.000000 1.000000
vt 0.000000 1.000000
vn 0.0000 1.0000 0.0000
usemtl None
s off
f 17/17/5 18/18/5 20/19/5 19/20/5
o Plane.004_Plane.005
v -11.731503 0.000000 -14.000000
v -9.731503 0.000000 -14.000000
v -11.731503 0.000000 -16.000000
v -9.731503 0.000000 -16.000000
vt 0.000000 0.000000
vt 1.000000 0.000000
vt 1.000000 1.000000
vt 0.000000 1.000000
vn 0.0000 1.0000 0.0000
usemtl None
s off
f 21/21/6 22/22/6 24/23/6 23/24/6
o Plane.006_Plane.007
v 7.366405 0.000000 6.000000
v 9.366405 0.000000 6.000000
v 7.366405 0.000000 4.000000
v 9.366405 0.000000 4.000000
vt 0.000000 0.000000
vt 1.000000 0.000000
vt 1.000000 1.000000
vt 0.000000 1.000000
vn 0.0000 1.0000 0.0000
usemtl None
s off
f 25/25/7 26/26/7 28/27/7 27/28/7
