{
  "accessors": [
    {
      "bufferView": 2,
      "componentType": 5126,
      "count": 65532,
      "max": [
        1.7411450147628784,
        8.658268928527832,
        2.1078860759735107
      ],
      "min": [
        -2.2847530841827393,
        6.0793089866638184,
        -1.2930350303649902
      ],
      "type": "VEC3"
    },
    {
      "bufferView": 2,
      "byteOffset": 786384,
      "componentType": 5126,
      "count": 65532,
      "max": [
        0.9999968409538269,
        0.99999421834945679,
        0.9999384880065918
      ],
      "min": [
        -0.99996697902679443,
        -0.99998068809509277,
        -0.99996274709701538
      ],
      "type": "VEC3"
    },
    {
      "bufferView": 3,
      "componentType": 5126,
      "count": 65532,
      "max": [
        0.99997925758361816,
        0.99995356798171997,
        0.99999147653579712,
        1
      ],
      "min": [
        -0.99989509582519531,
        -0.99994581937789917,
        -0.99999898672103882,
        -1
      ],
      "type": "VEC4"
    },
    {
      "bufferView": 1,
      "componentType": 5126,
      "count": 65532,
      "max": [
        1,
        0.99988102912902832
      ],
      "min": [
        2.8000000384054147e-05,
        0
      ],
      "type": "VEC2"
    },
    {
      "bufferView": 0,
      "componentType": 5125,
      "count": 207618,
      "max": [
        65531
      ],
      "min": [
        0
      ],
      "type": "SCALAR"
    },
    {
      "bufferView": 2,
      "byteOffset": 1572768,
      "componentType": 5126,
      "count": 65532,
      "max": [
        1.7540709972381592,
        8.6729326248168945,
        2.1236600875854492
      ],
      "min": [
        -2.3948628902435303,
        6.0587010383605957,
        -1.3444249629974365
      ],
      "type": "VEC3"
    },
    {
      "bufferView": 2,
      "byteOffset": 2359152,
      "componentType": 5126,
      "count": 65532,
      "max": [
        0.9999968409538269,
        0.99974846839904785,
        0.99998563528060913
      ],
      "min": [
        -0.9999237060546875,
        -0.99999159574508667,
        -0.99991238117218018
      ],
      "type": "VEC3"
    },
    {
      "bufferView": 3,
      "byteOffset": 1048512,
      "componentType": 5126,
      "count": 65532,
      "max": [
        0.99999302625656128,
        0.99999815225601196,
        0.9999503493309021,
        1
      ],
      "min": [
        -0.99999791383743286,
        -0.99998462200164795,
        -0.99996101856231689,
        -1
      ],
      "type": "VEC4"
    },
    {
      "bufferView": 1,
      "byteOffset": 524256,
      "componentType": 5126,
      "count": 65532,
      "max": [
        1,
        1
      ],
      "min": [
        0,
        0
      ],
      "type": "VEC2"
    },
    {
      "bufferView": 0,
      "byteOffset": 830472,
      "componentType": 5125,
      "count": 169809,
      "max": [
        65531
      ],
      "min": [
        0
      ],
      "type": "SCALAR"
    },
    {
      "bufferView": 2,
      "byteOffset": 3145536,
      "componentType": 5126,
      "count": 65532,
      "max": [
        1.7541379928588867,
        8.6814212799072266,
        2.1236600875854492
      ],
      "min": [
        -2.352834939956665,
        6.0095000267028809,
        -1.3444249629974365
      ],
      "type": "VEC3"
    },
    {
      "bufferView": 2,
      "byteOffset": 3931920,
      "componentType": 5126,
      "count": 65532,
      "max": [
        0.99997520446777344,
        0.99999803304672241,
        0.9999963641166687
      ],
      "min": [
        -0.99996393918991089,
        -0.99999159574508667,
        -0.99991238117218018
      ],
      "type": "VEC3"
    },
    {
      "bufferView": 3,
      "byteOffset": 2097024,
      "componentType": 5126,
      "count": 65532,
      "max": [
        0.999919593334198,
        0.99997717142105103,
        0.99994897842407227,
        1
      ],
      "min": [
        -0.99998831748962402,
        -0.99999487400054932,
        -0.99994206428527832,
        -1
      ],
      "type": "VEC4"
    },
    {
      "bufferView": 1,
      "byteOffset": 1048512,
      "componentType": 5126,
      "count": 65532,
      "max": [
        1,
        1
      ],
      "min": [
        0,
        0
      ],
      "type": "VEC2"
    },
    {
      "bufferView": 0,
      "byteOffset": 1509708,
      "componentType": 5125,
      "count": 159954,
      "max": [
        65531
      ],
      "min": [
        0
      ],
      "type": "SCALAR"
    },
    {
      "bufferView": 2,
      "byteOffset": 4718304,
      "componentType": 5126,
      "count": 65533,
      "max": [
        1.7612529993057251,
        8.6717805862426758,
        2.1222889423370361
      ],
      "min": [
        -2.3632950782775879,
        6.0283360481262207,
        -1.3139779567718506
      ],
      "type": "VEC3"
    },
    {
      "bufferView": 2,
      "byteOffset": 5504700,
      "componentType": 5126,
      "count": 65533,
      "max": [
        0.99996250867843628,
        0.99996602535247803,
        0.99993038177490234
      ],
      "min": [
        -0.99999946355819702,
        -0.99992042779922485,
        -0.99999815225601196
      ],
      "type": "VEC3"
    },
    {
      "bufferView": 3,
      "byteOffset": 3145536,
      "componentType": 5126,
      "count": 65533,
      "max": [
        0.99999791383743286,
        0.99998939037322998,
        0.99998831748962402,
        1
      ],
      "min": [
        -0.99997895956039429,
        -0.99999797344207764,
        -0.99994629621505737,
        -1
      ],
      "type": "VEC4"
    },
    {
      "bufferView": 1,
      "byteOffset": 1572768,
      "componentType": 5126,
      "count": 65533,
      "max": [
        1,
        0.99961698055267334
      ],
      "min": [
        0,
        0
      ],
      "type": "VEC2"
    },
    {
      "bufferView": 0,
      "byteOffset": 2149524,
      "componentType": 5125,
      "count": 158679,
      "max": [
        65532
      ],
      "min": [
        0
      ],
      "type": "SCALAR"
    },
    {
      "bufferView": 2,
      "byteOffset": 6291096,
      "componentType": 5126,
      "count": 26968,
      "max": [
        1.7314050197601318,
        8.5323934555053711,
        2.0231409072875977
      ],
      "min": [
        -2.2999138832092285,
        6.0283360481262207,
        -1.3089230060577393
      ],
      "type": "VEC3"
    },
    {
      "bufferView": 2,
      "byteOffset": 6614712,
      "componentType": 5126,
      "count": 26968,
      "max": [
        0.99995523691177368,
        0.99979549646377563,
        0.99977248907089233
      ],
      "min": [
        -0.99998801946640015,
        -0.99999326467514038,
        -0.99999815225601196
      ],
      "type": "VEC3"
    },
    {
      "bufferView": 3,
      "byteOffset": 4194064,
      "componentType": 5126,
      "count": 26968,
      "max": [
        0.99987107515335083,
        0.99997222423553467,
        0.99996256828308105,
        1
      ],
      "min": [
        -0.99996423721313477,
        -0.99997854232788086,
        -0.99984508752822876,
        -1
      ],
      "type": "VEC4"
    },
    {
      "bufferView": 1,
      "byteOffset": 2097032,
      "componentType": 5126,
      "count": 26968,
      "max": [
        1,
        0.99981999397277832
      ],
      "min": [
        0,
        0
      ],
      "type": "VEC2"
    },
    {
      "bufferView": 0,
      "byteOffset": 2784240,
      "componentType": 5125,
      "count": 42471,
      "max": [
        26967
      ],
      "min": [
        0
      ],
      "type": "SCALAR"
    }
  ],
  "asset": {
    "extras": {
      "author": "nedo (https://sketchfab.com/nedo)",
      "license": "CC-BY-4.0 (http://creativecommons.org/licenses/by/4.0/)",
      "source": "https://sketchfab.com/3d-models/mushrooms-739f79d538bd460cafa73b950a85d462",
      "title": "Mushrooms"
    },
    "generator": "Sketchfab-6.93.2",
    "version": "2.0"
  },
  "bufferViews": [
    {
      "buffer": 0,
      "byteLength": 2954124,
      "byteOffset": 0,
      "name": "floatBufferViews",
      "target": 34963
    },
    {
      "buffer": 0,
      "byteLength": 2312776,
      "byteOffset": 2954124,
      "byteStride": 8,
      "name": "floatBufferViews",
      "target": 34962
    },
    {
      "buffer": 0,
      "byteLength": 6938328,
      "byteOffset": 5266900,
      "byteStride": 12,
      "name": "floatBufferViews",
      "target": 34962
    },
    {
      "buffer": 0,
      "byteLength": 4625552,
      "byteOffset": 12205228,
      "byteStride": 16,
      "name": "floatBufferViews",
      "target": 34962
    }
  ],
  "buffers": [
    {
      "byteLength": 16830780,
      "uri": "scene.bin"
    }
  ],
  "extensionsUsed": [
    "KHR_materials_unlit"
  ],
  "images": [
    {
      "uri": "textures/Mushroom_baseColor.jpeg"
    }
  ],
  "materials": [
    {
      "doubleSided": true,
      "extensions": {
        "KHR_materials_unlit": {}
      },
      "name": "Mushroom",
      "pbrMetallicRoughness": {
        "baseColorFactor": [
          1,
          1,
          1,
          1
        ],
        "baseColorTexture": {
          "index": 0,
          "texCoord": 0
        },
        "metallicFactor": 0,
        "roughnessFactor": 1
      }
    }
  ],
  "meshes": [
    {
      "primitives": [
        {
          "attributes": {
            "NORMAL": 1,
            "POSITION": 0,
            "TANGENT": 2,
            "TEXCOORD_0": 3
          },
          "indices": 4,
          "material": 0,
          "mode": 4
        }
      ]
    },
    {
      "primitives": [
        {
          "attributes": {
            "NORMAL": 6,
            "POSITION": 5,
            "TANGENT": 7,
            "TEXCOORD_0": 8
          },
          "indices": 9,
          "material": 0,
          "mode": 4
        }
      ]
    },
    {
      "primitives": [
        {
          "attributes": {
            "NORMAL": 11,
            "POSITION": 10,
            "TANGENT": 12,
            "TEXCOORD_0": 13
          },
          "indices": 14,
          "material": 0,
          "mode": 4
        }
      ]
    },
    {
      "primitives": [
        {
          "attributes": {
            "NORMAL": 16,
            "POSITION": 15,
            "TANGENT": 17,
            "TEXCOORD_0": 18
          },
          "indices": 19,
          "material": 0,
          "mode": 4
        }
      ]
    },
    {
      "primitives": [
        {
          "attributes": {
            "NORMAL": 21,
            "POSITION": 20,
            "TANGENT": 22,
            "TEXCOORD_0": 23
          },
          "indices": 24,
          "material": 0,
          "mode": 4
        }
      ]
    }
  ],
  "nodes": [
    {
      "children": [
        1
      ],
      "name": "RootNode (gltf orientation matrix)",
      "rotation": [
        -0.70710678118654746,
        -0,
        -0,
        0.70710678118654757
      ]
    },
    {
      "children": [
        2
      ],
      "matrix": [
        0.99166977405548096,
        0.11761348694562912,
        0.052517950534820557,
        0,
        -0.029974164441227913,
        0.6072503924369812,
        -0.79394489526748657,
        0,
        -0.12527017295360565,
        0.78575700521469116,
        0.60571718215942383,
        0,
        0.26634180545806885,
        2.6160457134246826,
        6.0021452903747559,
        1
      ],
      "name": "RootNode (model correction matrix)"
    },
    {
      "children": [
        3,
        4,
        5,
        6,
        7
      ],
      "name": "Mushroom.obj.cleaner.materialmerger.gles"
    },
    {
      "mesh": 0,
      "name": ""
    },
    {
      "mesh": 1,
      "name": ""
    },
    {
      "mesh": 2,
      "name": ""
    },
    {
      "mesh": 3,
      "name": ""
    },
    {
      "mesh": 4,
      "name": ""
    }
  ],
  "samplers": [
    {
      "magFilter": 9729,
      "minFilter": 9987,
      "wrapS": 10497,
      "wrapT": 10497
    }
  ],
  "scene": 0,
  "scenes": [
    {
      "name": "OSG_Scene",
      "nodes": [
        0
      ]
    }
  ],
  "textures": [
    {
      "sampler": 0,
      "source": 0
    }
  ]
}

