#
# 16 poly cone of unit lengths at origin
# 
mtllib navmesh.mtl

o Cone
v 0.000000 -0.500000 -1.000000
v 0.382683 -0.500000 -0.923880
v 0.707107 -0.500000 -0.707107
v 0.923880 -0.500000 -0.382683
v 1.000000 -0.500000 0.000000
v 0.923880 -0.500000 0.382684
v 0.707107 -0.500000 0.707107
v 0.382683 -0.500000 0.923880
v 0.000000 -0.500000 1.000000
v -0.382683 -0.500000 0.923880
v -0.707107 -0.500000 0.707107
v 0.000000 0.500000 0.000000
v -0.923880 -0.500000 0.382684
v -1.000000 -0.500000 -0.000000
v -0.923879 -0.500000 -0.382684
v -0.707107 -0.500000 -0.707107
v -0.382683 -0.500000 -0.923880
vn 0.1393 0.7002 -0.7002
vn 0.3966 0.7002 -0.5936
vn 0.5936 0.7002 -0.3966
vn 0.7002 0.7002 -0.1393
vn 0.7002 0.7002 0.1393
vn 0.5936 0.7002 0.3966
vn 0.3966 0.7002 0.5936
vn 0.1393 0.7002 0.7002
vn -0.1393 0.7002 0.7002
vn -0.3966 0.7002 0.5936
vn -0.5936 0.7002 0.3966
vn -0.7002 0.7002 0.1393
vn -0.7002 0.7002 -0.1393
vn -0.5936 0.7002 -0.3966
vn -0.3966 0.7002 -0.5936
vn -0.1393 0.7002 -0.7002
vn 0.0000 -1.0000 -0.0000
usemtl arrow
g arrow
f 1//1 12//1 2//1
f 2//2 12//2 3//2
f 3//3 12//3 4//3
f 4//4 12//4 5//4
f 5//5 12//5 6//5
f 6//6 12//6 7//6
f 7//7 12//7 8//7
f 8//8 12//8 9//8
f 9//9 12//9 10//9
f 10//10 12//10 11//10
f 11//11 12//11 13//11
f 13//12 12//12 14//12
f 14//13 12//13 15//13
f 15//14 12//14 16//14
f 16//15 12//15 17//15
f 17//16 12//16 1//16
f 1//17 2//17 3//17 4//17 5//17 6//17 7//17 8//17 9//17 10//17 11//17 13//17 14//17 15//17 16//17 17//17
