#
# 20 vertex cylinder of unit lengths at origin
#
mtllib navmesh.mtl

o Cylinder
v 0.000000 -0.500000 -0.500000
v 0.000000 0.500000 -0.500000
v 0.154509 -0.500000 -0.475528
v 0.154509 0.500000 -0.475528
v 0.293893 -0.500000 -0.404509
v 0.293893 0.500000 -0.404509
v 0.404509 -0.500000 -0.293893
v 0.404509 0.500000 -0.293893
v 0.475528 -0.500000 -0.154508
v 0.475528 0.500000 -0.154508
v 0.500000 -0.500000 0.000000
v 0.500000 0.500000 0.000000
v 0.475528 -0.500000 0.154509
v 0.475528 0.500000 0.154509
v 0.404509 -0.500000 0.293893
v 0.404509 0.500000 0.293893
v 0.293893 -0.500000 0.404509
v 0.293893 0.500000 0.404509
v 0.154508 -0.500000 0.475528
v 0.154508 0.500000 0.475528
v -0.000000 -0.500000 0.500000
v -0.000000 0.500000 0.500000
v -0.154509 -0.500000 0.475528
v -0.154509 0.500000 0.475528
v -0.293893 -0.500000 0.404508
v -0.293893 0.500000 0.404508
v -0.404509 -0.500000 0.293892
v -0.404509 0.500000 0.293892
v -0.475528 -0.500000 0.154508
v -0.475528 0.500000 0.154508
v -0.500000 -0.500000 -0.000000
v -0.500000 0.500000 -0.000000
v -0.475528 -0.500000 -0.154509
v -0.475528 0.500000 -0.154509
v -0.404508 -0.500000 -0.293893
v -0.404508 0.500000 -0.293893
v -0.293892 -0.500000 -0.404509
v -0.293892 0.500000 -0.404509
v -0.154508 -0.500000 -0.475528
v -0.154508 0.500000 -0.475528
vn 0.1564 0.0000 -0.9877
vn 0.4540 0.0000 -0.8910
vn 0.7071 0.0000 -0.7071
vn 0.8910 0.0000 -0.4540
vn 0.9877 0.0000 -0.1564
vn 0.9877 0.0000 0.1564
vn 0.8910 0.0000 0.4540
vn 0.7071 0.0000 0.7071
vn 0.4540 0.0000 0.8910
vn 0.1564 0.0000 0.9877
vn -0.1564 0.0000 0.9877
vn -0.4540 0.0000 0.8910
vn -0.7071 0.0000 0.7071
vn -0.8910 0.0000 0.4540
vn -0.9877 0.0000 0.1564
vn -0.9877 0.0000 -0.1564
vn -0.8910 0.0000 -0.4540
vn -0.7071 0.0000 -0.7071
vn 0.0000 1.0000 0.0000
vn -0.4540 0.0000 -0.8910
vn -0.1564 0.0000 -0.9877
vn 0.0000 -1.0000 -0.0000
usemtl edge
g edge
f 1//1 2//1 4//1 3//1
f 3//2 4//2 6//2 5//2
f 5//3 6//3 8//3 7//3
f 7//4 8//4 10//4 9//4
f 9//5 10//5 12//5 11//5
f 11//6 12//6 14//6 13//6
f 13//7 14//7 16//7 15//7
f 15//8 16//8 18//8 17//8
f 17//9 18//9 20//9 19//9
f 19//10 20//10 22//10 21//10
f 21//11 22//11 24//11 23//11
f 23//12 24//12 26//12 25//12
f 25//13 26//13 28//13 27//13
f 27//14 28//14 30//14 29//14
f 29//15 30//15 32//15 31//15
f 31//16 32//16 34//16 33//16
f 33//17 34//17 36//17 35//17
f 35//18 36//18 38//18 37//18
f 4//19 2//19 40//19 38//19 36//19 34//19 32//19 30//19 28//19 26//19 24//19 22//19 20//19 18//19 16//19 14//19 12//19 10//19 8//19 6//19
f 37//20 38//20 40//20 39//20
f 39//21 40//21 2//21 1//21
f 1//22 3//22 5//22 7//22 9//22 11//22 13//22 15//22 17//22 19//22 21//22 23//22 25//22 27//22 29//22 31//22 33//22 35//22 37//22 39//22
