# Blender v2.79 (sub 0) OBJ File: ''
# www.blender.org
mtllib navmesh.mtl

o Sphere
v 0.000000 0.490393 -0.097545
v 0.000000 0.353553 -0.353553
v 0.000000 0.277785 -0.415735
v 0.000000 0.191342 -0.461940
v 0.000000 0.097545 -0.490393
v 0.000000 0.000000 -0.500000
v 0.000000 -0.097545 -0.490393
v 0.000000 -0.191342 -0.461940
v 0.000000 -0.277785 -0.415735
v 0.000000 -0.353553 -0.353553
v 0.000000 -0.415735 -0.277785
v 0.000000 -0.461940 -0.191342
v 0.000000 -0.490393 -0.097545
v 0.037329 0.490393 -0.090120
v 0.073223 0.461940 -0.176777
v 0.106304 0.415735 -0.256640
v 0.135299 0.353553 -0.326641
v 0.159095 0.277785 -0.384089
v 0.176777 0.191342 -0.426777
v 0.187665 0.097545 -0.453064
v 0.191342 0.000000 -0.461940
v 0.187665 -0.097545 -0.453064
v 0.176777 -0.191342 -0.426777
v 0.159095 -0.277785 -0.384089
v 0.135299 -0.353553 -0.326641
v 0.106304 -0.415735 -0.256640
v 0.073223 -0.461940 -0.176777
v 0.037329 -0.490393 -0.090120
v 0.068975 0.490393 -0.068975
v 0.135299 0.461940 -0.135299
v 0.196424 0.415735 -0.196424
v 0.250000 0.353553 -0.250000
v 0.293969 0.277785 -0.293969
v 0.326641 0.191342 -0.326641
v 0.346760 0.097545 -0.346760
v 0.353554 0.000000 -0.353553
v 0.346760 -0.097545 -0.346760
v 0.326641 -0.191342 -0.326641
v 0.293969 -0.277785 -0.293969
v 0.250000 -0.353553 -0.250000
v 0.196424 -0.415735 -0.196424
v 0.135299 -0.461940 -0.135299
v 0.068975 -0.490393 -0.068975
v 0.090120 0.490393 -0.037329
v 0.176777 0.461940 -0.073223
v 0.256640 0.415735 -0.106304
v 0.326641 0.353553 -0.135299
v 0.384089 0.277785 -0.159095
v 0.426777 0.191342 -0.176777
v 0.453064 0.097545 -0.187665
v 0.461940 0.000000 -0.191342
v 0.453064 -0.097545 -0.187665
v 0.426777 -0.191342 -0.176777
v 0.384089 -0.277785 -0.159095
v 0.326641 -0.353553 -0.135299
v 0.256640 -0.415735 -0.106304
v 0.176777 -0.461940 -0.073223
v 0.090120 -0.490393 -0.037329
v 0.097545 0.490393 0.000000
v 0.191342 0.461940 0.000000
v 0.277785 0.415735 0.000000
v 0.353554 0.353553 0.000000
v 0.415735 0.277785 0.000000
v 0.461940 0.191342 0.000000
v 0.490393 0.097545 0.000000
v 0.500000 0.000000 0.000000
v 0.490393 -0.097545 0.000000
v 0.461940 -0.191342 0.000000
v 0.415735 -0.277785 0.000000
v 0.353554 -0.353553 0.000000
v 0.277785 -0.415735 0.000000
v 0.191342 -0.461940 0.000000
v 0.097545 -0.490393 0.000000
v 0.090120 0.490393 0.037329
v 0.176777 0.461940 0.073224
v 0.256640 0.415735 0.106304
v 0.326641 0.353553 0.135299
v 0.384089 0.277785 0.159095
v 0.426777 0.191342 0.176777
v 0.453064 0.097545 0.187665
v 0.461940 0.000000 0.191342
v 0.453064 -0.097545 0.187665
v 0.426777 -0.191342 0.176777
v 0.384089 -0.277785 0.159095
v 0.326641 -0.353553 0.135299
v 0.256640 -0.415735 0.106304
v 0.176777 -0.461940 0.073224
v 0.090120 -0.490393 0.037329
v 0.068975 0.490393 0.068975
v 0.135299 0.461940 0.135299
v 0.196424 0.415735 0.196424
v 0.250000 0.353553 0.250000
v 0.293969 0.277785 0.293969
v 0.326641 0.191342 0.326641
v 0.346760 0.097545 0.346760
v 0.353553 0.000000 0.353554
v 0.346760 -0.097545 0.346760
v 0.326641 -0.191342 0.326641
v 0.293969 -0.277785 0.293969
v 0.250000 -0.353553 0.250000
v 0.196424 -0.415735 0.196424
v 0.135299 -0.461940 0.135299
v 0.068975 -0.490393 0.068975
v 0.037329 0.490393 0.090120
v 0.073223 0.461940 0.176777
v 0.106304 0.415735 0.256640
v 0.135299 0.353553 0.326641
v 0.159095 0.277785 0.384089
v 0.176777 0.191342 0.426777
v 0.187665 0.097545 0.453064
v 0.191342 0.000000 0.461940
v 0.187665 -0.097545 0.453064
v 0.176777 -0.191342 0.426777
v 0.159095 -0.277785 0.384089
v 0.135299 -0.353553 0.326641
v 0.106304 -0.415735 0.256640
v 0.073223 -0.461940 0.176777
v 0.037329 -0.490393 0.090120
v -0.000000 0.490393 0.097545
v -0.000000 0.461940 0.191342
v -0.000000 0.415735 0.277785
v -0.000000 0.353553 0.353554
v -0.000000 0.277785 0.415735
v -0.000000 0.191342 0.461940
v -0.000000 0.097545 0.490393
v -0.000000 0.000000 0.500000
v -0.000000 -0.097545 0.490393
v -0.000000 -0.191342 0.461940
v -0.000000 -0.277785 0.415735
v -0.000000 -0.353553 0.353554
v -0.000000 -0.415735 0.277785
v -0.000000 -0.461940 0.191342
v -0.000000 -0.490393 0.097545
v 0.000000 -0.500000 0.000000
v -0.037329 0.490393 0.090120
v -0.073223 0.461940 0.176777
v -0.106304 0.415735 0.256640
v -0.135299 0.353553 0.326641
v -0.159095 0.277785 0.384089
v -0.176777 0.191342 0.426777
v -0.187665 0.097545 0.453064
v -0.191342 0.000000 0.461940
v -0.187665 -0.097545 0.453064
v -0.176777 -0.191342 0.426777
v -0.159095 -0.277785 0.384089
v -0.135299 -0.353553 0.326641
v -0.106304 -0.415735 0.256640
v -0.073223 -0.461940 0.176777
v -0.037329 -0.490393 0.090120
v -0.068975 0.490393 0.068975
v -0.135299 0.461940 0.135299
v -0.196424 0.415735 0.196424
v -0.250000 0.353553 0.250000
v -0.293969 0.277785 0.293969
v -0.326641 0.191342 0.326641
v -0.346760 0.097545 0.346760
v -0.353554 0.000000 0.353553
v -0.346760 -0.097545 0.346760
v -0.326641 -0.191342 0.326641
v -0.293969 -0.277785 0.293969
v -0.250000 -0.353553 0.250000
v -0.196424 -0.415735 0.196424
v -0.135299 -0.461940 0.135299
v -0.068975 -0.490393 0.068975
v -0.000000 0.500000 0.000000
v -0.090120 0.490393 0.037329
v -0.176777 0.461940 0.073223
v -0.256640 0.415735 0.106304
v -0.326641 0.353553 0.135299
v -0.384089 0.277785 0.159095
v -0.426777 0.191342 0.176777
v -0.453064 0.097545 0.187665
v -0.461940 0.000000 0.191342
v -0.453064 -0.097545 0.187665
v -0.426777 -0.191342 0.176777
v -0.384089 -0.277785 0.159095
v -0.326641 -0.353553 0.135299
v -0.256640 -0.415735 0.106304
v -0.176777 -0.461940 0.073223
v -0.090120 -0.490393 0.037329
v -0.097545 0.490393 0.000000
v -0.191342 0.461940 0.000000
v -0.277785 0.415735 0.000000
v -0.353553 0.353553 0.000000
v -0.415735 0.277785 -0.000000
v -0.461940 0.191342 -0.000000
v -0.490393 0.097545 0.000000
v -0.500000 0.000000 -0.000000
v -0.490393 -0.097545 0.000000
v -0.461940 -0.191342 -0.000000
v -0.415735 -0.277785 -0.000000
v -0.353553 -0.353553 0.000000
v -0.277785 -0.415735 0.000000
v -0.191342 -0.461940 0.000000
v -0.097545 -0.490393 0.000000
v -0.090120 0.490393 -0.037329
v -0.176777 0.461940 -0.073223
v -0.256640 0.415735 -0.106304
v -0.326641 0.353553 -0.135299
v -0.384089 0.277785 -0.159095
v -0.426777 0.191342 -0.176777
v -0.453064 0.097545 -0.187665
v -0.461940 0.000000 -0.191342
v -0.453064 -0.097545 -0.187665
v -0.426777 -0.191342 -0.176777
v -0.384089 -0.277785 -0.159095
v -0.326641 -0.353553 -0.135299
v -0.256640 -0.415735 -0.106304
v -0.176777 -0.461940 -0.073223
v -0.090120 -0.490393 -0.037329
v -0.068975 0.490393 -0.068975
v -0.135299 0.461940 -0.135299
v -0.196424 0.415735 -0.196424
v -0.250000 0.353553 -0.250000
v -0.293969 0.277785 -0.293969
v -0.326641 0.191342 -0.326641
v -0.346760 0.097545 -0.346760
v -0.353553 0.000000 -0.353553
v -0.346760 -0.097545 -0.346760
v -0.326641 -0.191342 -0.326641
v -0.293969 -0.277785 -0.293969
v -0.250000 -0.353553 -0.250000
v -0.196424 -0.415735 -0.196424
v -0.135299 -0.461940 -0.135299
v -0.068975 -0.490393 -0.068975
v -0.037329 0.490393 -0.090120
v -0.073223 0.461940 -0.176777
v -0.106304 0.415735 -0.256640
v -0.135299 0.353553 -0.326641
v -0.159095 0.277785 -0.384089
v -0.176776 0.191342 -0.426777
v -0.187665 0.097545 -0.453064
v -0.191342 0.000000 -0.461940
v -0.187665 -0.097545 -0.453064
v -0.176776 -0.191342 -0.426777
v -0.159095 -0.277785 -0.384089
v -0.135299 -0.353553 -0.326641
v -0.106304 -0.415735 -0.256640
v -0.073223 -0.461940 -0.176777
v -0.037329 -0.490393 -0.090120
v 0.000000 0.461940 -0.191342
v 0.000000 0.415735 -0.277785
vn 0.1252 -0.7669 -0.6294
vn 0.1728 0.4643 -0.8687
vn 0.0934 -0.8781 -0.4693
vn 0.1870 0.2852 -0.9401
vn 0.0576 -0.9553 -0.2898
vn 0.1942 0.0962 -0.9762
vn 0.0195 0.9950 -0.0980
vn 0.0195 -0.9950 -0.0980
vn 0.1942 -0.0962 -0.9762
vn 0.0576 0.9553 -0.2898
vn 0.1870 -0.2852 -0.9401
vn 0.0934 0.8781 -0.4693
vn 0.1728 -0.4643 -0.8687
vn 0.1252 0.7669 -0.6294
vn 0.1520 -0.6270 -0.7640
vn 0.1520 0.6270 -0.7640
vn 0.4328 -0.6270 -0.6477
vn 0.4328 0.6270 -0.6477
vn 0.3565 -0.7669 -0.5336
vn 0.4921 0.4643 -0.7364
vn 0.2659 -0.8781 -0.3979
vn 0.5325 0.2852 -0.7969
vn 0.1642 -0.9553 -0.2457
vn 0.5530 0.0962 -0.8276
vn 0.0555 0.9950 -0.0831
vn 0.0555 -0.9950 -0.0831
vn 0.5530 -0.0962 -0.8276
vn 0.1642 0.9553 -0.2457
vn 0.5325 -0.2852 -0.7969
vn 0.2659 0.8781 -0.3979
vn 0.4921 -0.4643 -0.7364
vn 0.3565 0.7669 -0.5336
vn 0.0831 0.9950 -0.0555
vn 0.0831 -0.9950 -0.0555
vn 0.8276 -0.0962 -0.5530
vn 0.2457 0.9553 -0.1642
vn 0.7969 -0.2852 -0.5325
vn 0.3979 0.8781 -0.2659
vn 0.7364 -0.4643 -0.4921
vn 0.5336 0.7669 -0.3565
vn 0.6477 -0.6270 -0.4328
vn 0.6477 0.6270 -0.4328
vn 0.5336 -0.7669 -0.3565
vn 0.7364 0.4643 -0.4921
vn 0.3979 -0.8781 -0.2659
vn 0.7969 0.2852 -0.5325
vn 0.2457 -0.9553 -0.1642
vn 0.8276 0.0962 -0.5530
vn 0.7640 0.6270 -0.1520
vn 0.6294 -0.7669 -0.1252
vn 0.8687 0.4643 -0.1728
vn 0.4693 -0.8781 -0.0934
vn 0.9401 0.2852 -0.1870
vn 0.2898 -0.9553 -0.0576
vn 0.9762 0.0962 -0.1942
vn 0.0980 0.9950 -0.0195
vn 0.0980 -0.9950 -0.0195
vn 0.9762 -0.0962 -0.1942
vn 0.2898 0.9553 -0.0576
vn 0.9401 -0.2852 -0.1870
vn 0.4693 0.8781 -0.0934
vn 0.8687 -0.4643 -0.1728
vn 0.6294 0.7669 -0.1252
vn 0.7640 -0.6270 -0.1520
vn 0.9762 -0.0962 0.1942
vn 0.2898 0.9553 0.0576
vn 0.9401 -0.2852 0.1870
vn 0.4693 0.8781 0.0934
vn 0.8687 -0.4643 0.1728
vn 0.6294 0.7669 0.1252
vn 0.7640 -0.6270 0.1520
vn 0.7640 0.6270 0.1520
vn 0.6294 -0.7669 0.1252
vn 0.8687 0.4643 0.1728
vn 0.4693 -0.8781 0.0934
vn 0.9401 0.2852 0.1870
vn 0.2898 -0.9553 0.0576
vn 0.9762 0.0962 0.1942
vn 0.0980 0.9950 0.0195
vn 0.0980 -0.9950 0.0195
vn 0.5336 -0.7669 0.3565
vn 0.7364 0.4643 0.4921
vn 0.3979 -0.8781 0.2659
vn 0.7969 0.2852 0.5325
vn 0.2457 -0.9553 0.1642
vn 0.8276 0.0962 0.5530
vn 0.0831 0.9950 0.0555
vn 0.0831 -0.9950 0.0555
vn 0.8276 -0.0962 0.5530
vn 0.2457 0.9553 0.1642
vn 0.7969 -0.2852 0.5325
vn 0.3979 0.8781 0.2659
vn 0.7364 -0.4643 0.4921
vn 0.5336 0.7669 0.3565
vn 0.6477 -0.6270 0.4328
vn 0.6477 0.6270 0.4328
vn 0.1642 0.9553 0.2457
vn 0.5325 -0.2852 0.7969
vn 0.2659 0.8781 0.3979
vn 0.4921 -0.4643 0.7364
vn 0.3565 0.7669 0.5336
vn 0.4328 -0.6270 0.6477
vn 0.4328 0.6270 0.6477
vn 0.3565 -0.7669 0.5336
vn 0.4921 0.4643 0.7364
vn 0.2659 -0.8781 0.3979
vn 0.5325 0.2852 0.7969
vn 0.1642 -0.9553 0.2457
vn 0.5530 0.0962 0.8276
vn 0.0555 0.9950 0.0831
vn 0.0555 -0.9950 0.0831
vn 0.5530 -0.0962 0.8276
vn 0.1728 0.4643 0.8687
vn 0.0934 -0.8781 0.4693
vn 0.1870 0.2852 0.9401
vn 0.0576 -0.9553 0.2898
vn 0.1942 0.0962 0.9762
vn 0.0195 0.9950 0.0980
vn 0.0195 -0.9950 0.0980
vn 0.1942 -0.0962 0.9762
vn 0.0576 0.9553 0.2898
vn 0.1870 -0.2852 0.9401
vn 0.0934 0.8781 0.4693
vn 0.1728 -0.4643 0.8687
vn 0.1252 0.7669 0.6294
vn 0.1520 -0.6270 0.7640
vn 0.1520 0.6270 0.7640
vn 0.1252 -0.7669 0.6294
vn -0.1870 -0.2852 0.9401
vn -0.0934 0.8781 0.4693
vn -0.1728 -0.4643 0.8687
vn -0.1252 0.7669 0.6294
vn -0.1520 -0.6270 0.7640
vn -0.1520 0.6270 0.7640
vn -0.1252 -0.7669 0.6294
vn -0.1728 0.4643 0.8687
vn -0.0934 -0.8781 0.4693
vn -0.1870 0.2852 0.9401
vn -0.0576 -0.9553 0.2898
vn -0.1942 0.0962 0.9762
vn -0.0195 0.9950 0.0980
vn -0.0195 -0.9950 0.0980
vn -0.1942 -0.0962 0.9762
vn -0.0576 0.9553 0.2898
vn -0.2659 -0.8781 0.3979
vn -0.5325 0.2852 0.7969
vn -0.1642 -0.9553 0.2457
vn -0.5530 0.0962 0.8276
vn -0.0555 0.9950 0.0831
vn -0.0555 -0.9950 0.0831
vn -0.5530 -0.0962 0.8276
vn -0.1642 0.9553 0.2457
vn -0.5325 -0.2852 0.7969
vn -0.2659 0.8781 0.3979
vn -0.4921 -0.4643 0.7364
vn -0.3565 0.7669 0.5336
vn -0.4328 -0.6270 0.6477
vn -0.4328 0.6270 0.6477
vn -0.3565 -0.7669 0.5336
vn -0.4921 0.4643 0.7364
vn -0.7364 -0.4643 0.4921
vn -0.5336 0.7669 0.3565
vn -0.6477 -0.6270 0.4328
vn -0.6477 0.6270 0.4328
vn -0.5336 -0.7669 0.3565
vn -0.7364 0.4643 0.4921
vn -0.3979 -0.8781 0.2659
vn -0.7969 0.2852 0.5325
vn -0.2457 -0.9553 0.1642
vn -0.8276 0.0962 0.5530
vn -0.0831 0.9950 0.0555
vn -0.0831 -0.9950 0.0555
vn -0.8276 -0.0962 0.5530
vn -0.2457 0.9553 0.1642
vn -0.7969 -0.2852 0.5325
vn -0.3979 0.8781 0.2659
vn -0.2898 -0.9553 0.0576
vn -0.9762 0.0962 0.1942
vn -0.0980 0.9950 0.0195
vn -0.0980 -0.9950 0.0195
vn -0.9762 -0.0962 0.1942
vn -0.2898 0.9553 0.0576
vn -0.9401 -0.2852 0.1870
vn -0.4693 0.8781 0.0934
vn -0.8687 -0.4643 0.1728
vn -0.6294 0.7669 0.1252
vn -0.7640 -0.6270 0.1520
vn -0.7640 0.6270 0.1520
vn -0.6294 -0.7669 0.1252
vn -0.8687 0.4643 0.1728
vn -0.4693 -0.8781 0.0934
vn -0.9401 0.2852 0.1870
vn -0.6294 0.7669 -0.1252
vn -0.7640 -0.6270 -0.1520
vn -0.7640 0.6270 -0.1520
vn -0.6294 -0.7669 -0.1252
vn -0.8687 0.4643 -0.1728
vn -0.4693 -0.8781 -0.0934
vn -0.9401 0.2852 -0.1870
vn -0.2898 -0.9553 -0.0576
vn -0.9762 0.0962 -0.1942
vn -0.0980 0.9950 -0.0195
vn -0.0980 -0.9950 -0.0195
vn -0.9762 -0.0962 -0.1942
vn -0.2898 0.9553 -0.0576
vn -0.9401 -0.2852 -0.1870
vn -0.4693 0.8781 -0.0934
vn -0.8687 -0.4643 -0.1728
vn -0.8276 0.0962 -0.5530
vn -0.0831 0.9950 -0.0555
vn -0.0831 -0.9950 -0.0555
vn -0.8276 -0.0962 -0.5530
vn -0.2457 0.9553 -0.1642
vn -0.7969 -0.2852 -0.5325
vn -0.3979 0.8781 -0.2659
vn -0.7364 -0.4643 -0.4921
vn -0.5336 0.7669 -0.3565
vn -0.6477 -0.6270 -0.4328
vn -0.6477 0.6270 -0.4328
vn -0.5336 -0.7669 -0.3565
vn -0.7364 0.4643 -0.4921
vn -0.3979 -0.8781 -0.2659
vn -0.7969 0.2852 -0.5325
vn -0.2457 -0.9553 -0.1642
vn -0.4328 -0.6270 -0.6477
vn -0.4328 0.6270 -0.6477
vn -0.3565 -0.7669 -0.5336
vn -0.4921 0.4643 -0.7364
vn -0.2659 -0.8781 -0.3979
vn -0.5325 0.2852 -0.7969
vn -0.1642 -0.9553 -0.2457
vn -0.5530 0.0962 -0.8276
vn -0.0555 0.9950 -0.0831
vn -0.0555 -0.9950 -0.0831
vn -0.5530 -0.0962 -0.8276
vn -0.1642 0.9553 -0.2457
vn -0.5325 -0.2852 -0.7969
vn -0.2659 0.8781 -0.3979
vn -0.4921 -0.4643 -0.7364
vn -0.3565 0.7669 -0.5336
vn -0.0195 0.9950 -0.0980
vn -0.0195 -0.9950 -0.0980
vn -0.1942 -0.0962 -0.9762
vn -0.0576 0.9553 -0.2898
vn -0.1870 -0.2852 -0.9401
vn -0.0934 0.8781 -0.4693
vn -0.1728 -0.4643 -0.8687
vn -0.1252 0.7669 -0.6294
vn -0.1520 -0.6270 -0.7640
vn -0.1520 0.6270 -0.7640
vn -0.1252 -0.7669 -0.6294
vn -0.1728 0.4643 -0.8687
vn -0.0934 -0.8781 -0.4693
vn -0.1870 0.2852 -0.9401
vn -0.0576 -0.9553 -0.2898
vn -0.1942 0.0962 -0.9762
usemtl vertex
g vertex
f 11//1 10//1 25//1 26//1
f 4//2 3//2 18//2 19//2
f 12//3 11//3 26//3 27//3
f 5//4 4//4 19//4 20//4
f 13//5 12//5 27//5 28//5
f 6//6 5//6 20//6 21//6
f 1//7 165//7 14//7
f 134//8 13//8 28//8
f 7//9 6//9 21//9 22//9
f 241//10 1//10 14//10 15//10
f 8//11 7//11 22//11 23//11
f 242//12 241//12 15//12 16//12
f 9//13 8//13 23//13 24//13
f 2//14 242//14 16//14 17//14
f 10//15 9//15 24//15 25//15
f 3//16 2//16 17//16 18//16
f 25//17 24//17 39//17 40//17
f 18//18 17//18 32//18 33//18
f 26//19 25//19 40//19 41//19
f 19//20 18//20 33//20 34//20
f 27//21 26//21 41//21 42//21
f 20//22 19//22 34//22 35//22
f 28//23 27//23 42//23 43//23
f 21//24 20//24 35//24 36//24
f 14//25 165//25 29//25
f 134//26 28//26 43//26
f 22//27 21//27 36//27 37//27
f 15//28 14//28 29//28 30//28
f 23//29 22//29 37//29 38//29
f 16//30 15//30 30//30 31//30
f 24//31 23//31 38//31 39//31
f 17//32 16//32 31//32 32//32
f 29//33 165//33 44//33
f 134//34 43//34 58//34
f 37//35 36//35 51//35 52//35
f 30//36 29//36 44//36 45//36
f 38//37 37//37 52//37 53//37
f 31//38 30//38 45//38 46//38
f 39//39 38//39 53//39 54//39
f 32//40 31//40 46//40 47//40
f 40//41 39//41 54//41 55//41
f 33//42 32//42 47//42 48//42
f 41//43 40//43 55//43 56//43
f 34//44 33//44 48//44 49//44
f 42//45 41//45 56//45 57//45
f 35//46 34//46 49//46 50//46
f 43//47 42//47 57//47 58//47
f 36//48 35//48 50//48 51//48
f 48//49 47//49 62//49 63//49
f 56//50 55//50 70//50 71//50
f 49//51 48//51 63//51 64//51
f 57//52 56//52 71//52 72//52
f 50//53 49//53 64//53 65//53
f 58//54 57//54 72//54 73//54
f 51//55 50//55 65//55 66//55
f 44//56 165//56 59//56
f 134//57 58//57 73//57
f 52//58 51//58 66//58 67//58
f 45//59 44//59 59//59 60//59
f 53//60 52//60 67//60 68//60
f 46//61 45//61 60//61 61//61
f 54//62 53//62 68//62 69//62
f 47//63 46//63 61//63 62//63
f 55//64 54//64 69//64 70//64
f 67//65 66//65 81//65 82//65
f 60//66 59//66 74//66 75//66
f 68//67 67//67 82//67 83//67
f 61//68 60//68 75//68 76//68
f 69//69 68//69 83//69 84//69
f 62//70 61//70 76//70 77//70
f 70//71 69//71 84//71 85//71
f 63//72 62//72 77//72 78//72
f 71//73 70//73 85//73 86//73
f 64//74 63//74 78//74 79//74
f 72//75 71//75 86//75 87//75
f 65//76 64//76 79//76 80//76
f 73//77 72//77 87//77 88//77
f 66//78 65//78 80//78 81//78
f 59//79 165//79 74//79
f 134//80 73//80 88//80
f 86//81 85//81 100//81 101//81
f 79//82 78//82 93//82 94//82
f 87//83 86//83 101//83 102//83
f 80//84 79//84 94//84 95//84
f 88//85 87//85 102//85 103//85
f 81//86 80//86 95//86 96//86
f 74//87 165//87 89//87
f 134//88 88//88 103//88
f 82//89 81//89 96//89 97//89
f 75//90 74//90 89//90 90//90
f 83//91 82//91 97//91 98//91
f 76//92 75//92 90//92 91//92
f 84//93 83//93 98//93 99//93
f 77//94 76//94 91//94 92//94
f 85//95 84//95 99//95 100//95
f 78//96 77//96 92//96 93//96
f 90//97 89//97 104//97 105//97
f 98//98 97//98 112//98 113//98
f 91//99 90//99 105//99 106//99
f 99//100 98//100 113//100 114//100
f 92//101 91//101 106//101 107//101
f 100//102 99//102 114//102 115//102
f 93//103 92//103 107//103 108//103
f 101//104 100//104 115//104 116//104
f 94//105 93//105 108//105 109//105
f 102//106 101//106 116//106 117//106
f 95//107 94//107 109//107 110//107
f 103//108 102//108 117//108 118//108
f 96//109 95//109 110//109 111//109
f 89//110 165//110 104//110
f 134//111 103//111 118//111
f 97//112 96//112 111//112 112//112
f 109//113 108//113 123//113 124//113
f 117//114 116//114 131//114 132//114
f 110//115 109//115 124//115 125//115
f 118//116 117//116 132//116 133//116
f 111//117 110//117 125//117 126//117
f 104//118 165//118 119//118
f 134//119 118//119 133//119
f 112//120 111//120 126//120 127//120
f 105//121 104//121 119//121 120//121
f 113//122 112//122 127//122 128//122
f 106//123 105//123 120//123 121//123
f 114//124 113//124 128//124 129//124
f 107//125 106//125 121//125 122//125
f 115//126 114//126 129//126 130//126
f 108//127 107//127 122//127 123//127
f 116//128 115//128 130//128 131//128
f 128//129 127//129 143//129 144//129
f 121//130 120//130 136//130 137//130
f 129//131 128//131 144//131 145//131
f 122//132 121//132 137//132 138//132
f 130//133 129//133 145//133 146//133
f 123//134 122//134 138//134 139//134
f 131//135 130//135 146//135 147//135
f 124//136 123//136 139//136 140//136
f 132//137 131//137 147//137 148//137
f 125//138 124//138 140//138 141//138
f 133//139 132//139 148//139 149//139
f 126//140 125//140 141//140 142//140
f 119//141 165//141 135//141
f 134//142 133//142 149//142
f 127//143 126//143 142//143 143//143
f 120//144 119//144 135//144 136//144
f 148//145 147//145 162//145 163//145
f 141//146 140//146 155//146 156//146
f 149//147 148//147 163//147 164//147
f 142//148 141//148 156//148 157//148
f 135//149 165//149 150//149
f 134//150 149//150 164//150
f 143//151 142//151 157//151 158//151
f 136//152 135//152 150//152 151//152
f 144//153 143//153 158//153 159//153
f 137//154 136//154 151//154 152//154
f 145//155 144//155 159//155 160//155
f 138//156 137//156 152//156 153//156
f 146//157 145//157 160//157 161//157
f 139//158 138//158 153//158 154//158
f 147//159 146//159 161//159 162//159
f 140//160 139//160 154//160 155//160
f 160//161 159//161 175//161 176//161
f 153//162 152//162 168//162 169//162
f 161//163 160//163 176//163 177//163
f 154//164 153//164 169//164 170//164
f 162//165 161//165 177//165 178//165
f 155//166 154//166 170//166 171//166
f 163//167 162//167 178//167 179//167
f 156//168 155//168 171//168 172//168
f 164//169 163//169 179//169 180//169
f 157//170 156//170 172//170 173//170
f 150//171 165//171 166//171
f 134//172 164//172 180//172
f 158//173 157//173 173//173 174//173
f 151//174 150//174 166//174 167//174
f 159//175 158//175 174//175 175//175
f 152//176 151//176 167//176 168//176
f 180//177 179//177 194//177 195//177
f 173//178 172//178 187//178 188//178
f 166//179 165//179 181//179
f 134//180 180//180 195//180
f 174//181 173//181 188//181 189//181
f 167//182 166//182 181//182 182//182
f 175//183 174//183 189//183 190//183
f 168//184 167//184 182//184 183//184
f 176//185 175//185 190//185 191//185
f 169//186 168//186 183//186 184//186
f 177//187 176//187 191//187 192//187
f 170//188 169//188 184//188 185//188
f 178//189 177//189 192//189 193//189
f 171//190 170//190 185//190 186//190
f 179//191 178//191 193//191 194//191
f 172//192 171//192 186//192 187//192
f 184//193 183//193 198//193 199//193
f 192//194 191//194 206//194 207//194
f 185//195 184//195 199//195 200//195
f 193//196 192//196 207//196 208//196
f 186//197 185//197 200//197 201//197
f 194//198 193//198 208//198 209//198
f 187//199 186//199 201//199 202//199
f 195//200 194//200 209//200 210//200
f 188//201 187//201 202//201 203//201
f 181//202 165//202 196//202
f 134//203 195//203 210//203
f 189//204 188//204 203//204 204//204
f 182//205 181//205 196//205 197//205
f 190//206 189//206 204//206 205//206
f 183//207 182//207 197//207 198//207
f 191//208 190//208 205//208 206//208
f 203//209 202//209 217//209 218//209
f 196//210 165//210 211//210
f 134//211 210//211 225//211
f 204//212 203//212 218//212 219//212
f 197//213 196//213 211//213 212//213
f 205//214 204//214 219//214 220//214
f 198//215 197//215 212//215 213//215
f 206//216 205//216 220//216 221//216
f 199//217 198//217 213//217 214//217
f 207//218 206//218 221//218 222//218
f 200//219 199//219 214//219 215//219
f 208//220 207//220 222//220 223//220
f 201//221 200//221 215//221 216//221
f 209//222 208//222 223//222 224//222
f 202//223 201//223 216//223 217//223
f 210//224 209//224 224//224 225//224
f 222//225 221//225 236//225 237//225
f 215//226 214//226 229//226 230//226
f 223//227 222//227 237//227 238//227
f 216//228 215//228 230//228 231//228
f 224//229 223//229 238//229 239//229
f 217//230 216//230 231//230 232//230
f 225//231 224//231 239//231 240//231
f 218//232 217//232 232//232 233//232
f 211//233 165//233 226//233
f 134//234 225//234 240//234
f 219//235 218//235 233//235 234//235
f 212//236 211//236 226//236 227//236
f 220//237 219//237 234//237 235//237
f 213//238 212//238 227//238 228//238
f 221//239 220//239 235//239 236//239
f 214//240 213//240 228//240 229//240
f 226//241 165//241 1//241
f 134//242 240//242 13//242
f 234//243 233//243 6//243 7//243
f 227//244 226//244 1//244 241//244
f 235//245 234//245 7//245 8//245
f 228//246 227//246 241//246 242//246
f 236//247 235//247 8//247 9//247
f 229//248 228//248 242//248 2//248
f 237//249 236//249 9//249 10//249
f 230//250 229//250 2//250 3//250
f 238//251 237//251 10//251 11//251
f 231//252 230//252 3//252 4//252
f 239//253 238//253 11//253 12//253
f 232//254 231//254 4//254 5//254
f 240//255 239//255 12//255 13//255
f 233//256 232//256 5//256 6//256
