{
  "accessors": [
    {
      "bufferView": 2,
      "componentType": 5126,
      "count": 1239,
      "max": [
        3.5150671005249023,
        1.9844310283660889,
        1.9437090158462524
      ],
      "min": [
        -3.5150671005249023,
        0,
        -1.9437090158462524
      ],
      "type": "VEC3"
    },
    {
      "bufferView": 2,
      "byteOffset": 14868,
      "componentType": 5126,
      "count": 1239,
      "max": [
        0.86980187892913818,
        0.99976682662963867,
        0.99981629848480225
      ],
      "min": [
        -0.96638429164886475,
        -0.99974292516708374,
        -0.99486511945724487
      ],
      "type": "VEC3"
    },
    {
      "bufferView": 3,
      "componentType": 5126,
      "count": 1239,
      "max": [
        0,
        0,
        0,
        1
      ],
      "min": [
        0,
        0,
        0,
        1
      ],
      "type": "VEC4"
    },
    {
      "bufferView": 1,
      "componentType": 5126,
      "count": 1239,
      "max": [
        0.48539680242538452,
        0.0099934348836541176
      ],
      "min": [
        0.48539680242538452,
        0.0099934348836541176
      ],
      "type": "VEC2"
    },
    {
      "bufferView": 0,
      "componentType": 5125,
      "count": 1470,
      "max": [
        1238
      ],
      "min": [
        0
      ],
      "type": "SCALAR"
    }
  ],
  "asset": {
    "extras": {
      "author": "nigromancer (https://sketchfab.com/nigromancer)",
      "license": "CC-BY-4.0 (http://creativecommons.org/licenses/by/4.0/)",
      "source": "https://sketchfab.com/models/f64f44d1b99545c681ff5965d3268d32",
      "title": "Cloud 3"
    },
    "generator": "Sketchfab-4.20.0",
    "version": "2.0"
  },
  "bufferViews": [
    {
      "buffer": 0,
      "byteLength": 5880,
      "byteOffset": 0,
      "name": "floatBufferViews",
      "target": 34963
    },
    {
      "buffer": 0,
      "byteLength": 9912,
      "byteOffset": 5880,
      "byteStride": 8,
      "name": "floatBufferViews",
      "target": 34962
    },
    {
      "buffer": 0,
      "byteLength": 29736,
      "byteOffset": 15792,
      "byteStride": 12,
      "name": "floatBufferViews",
      "target": 34962
    },
    {
      "buffer": 0,
      "byteLength": 19824,
      "byteOffset": 45528,
      "byteStride": 16,
      "name": "floatBufferViews",
      "target": 34962
    }
  ],
  "buffers": [
    {
      "byteLength": 65352,
      "uri": "scene.bin"
    }
  ],
  "materials": [
    {
      "doubleSided": true,
      "emissiveFactor": [
        0,
        0,
        0
      ],
      "name": "SM_Generic_Cloud_03_PolygonTown_01_A",
      "pbrMetallicRoughness": {
        "baseColorFactor": [
          1,
          1,
          1,
          1
        ],
        "metallicFactor": 0,
        "roughnessFactor": 0.95770514949999996
      }
    }
  ],
  "meshes": [
    {
      "name": "SM_Generic_Cloud_03_SM_Generic_Cloud_03_PolygonTown_01_A_0",
      "primitives": [
        {
          "attributes": {
            "NORMAL": 1,
            "POSITION": 0,
            "TANGENT": 2,
            "TEXCOORD_0": 3
          },
          "indices": 4,
          "material": 0,
          "mode": 4
        }
      ]
    }
  ],
  "nodes": [
    {
      "children": [
        1
      ],
      "name": "RootNode (gltf orientation matrix)",
      "rotation": [
        -0.70710678118654746,
        -0,
        -0,
        0.70710678118654757
      ]
    },
    {
      "children": [
        2
      ],
      "name": "RootNode (model correction matrix)"
    },
    {
      "children": [
        3
      ],
      "matrix": [
        1,
        0,
        0,
        0,
        0,
        0,
        1,
        0,
        0,
        -1,
        0,
        0,
        0,
        0,
        0,
        1
      ],
      "name": "SM_Generic_Cloud_03.fbx"
    },
    {
      "children": [
        4
      ],
      "name": "RootNode"
    },
    {
      "children": [
        5
      ],
      "name": "SM_Generic_Cloud_03"
    },
    {
      "mesh": 0,
      "name": "SM_Generic_Cloud_03_SM_Generic_Cloud_03_PolygonTown_01_A_0"
    }
  ],
  "samplers": [
    {
      "magFilter": 9729,
      "minFilter": 9987,
      "wrapS": 10497,
      "wrapT": 10497
    }
  ],
  "scene": 0,
  "scenes": [
    {
      "name": "OSG_Scene",
      "nodes": [
        0
      ]
    }
  ]
}

