{
  "accessors": [
    {
      "bufferView": 2,
      "componentType": 5126,
      "count": 770,
      "max": [
        3.3392360210418701,
        1.6512930393218994,
        0.80419838428497314
      ],
      "min": [
        -3.3392369747161865,
        0,
        -0.80419921875
      ],
      "type": "VEC3"
    },
    {
      "bufferView": 2,
      "byteOffset": 9240,
      "componentType": 5126,
      "count": 770,
      "max": [
        0.92893999814987183,
        0.99860900640487671,
        0.99573057889938354
      ],
      "min": [
        -0.89899688959121704,
        -0.99808210134506226,
        -0.99733859300613403
      ],
      "type": "VEC3"
    },
    {
      "bufferView": 3,
      "componentType": 5126,
      "count": 770,
      "max": [
        0,
        0,
        0,
        1
      ],
      "min": [
        0,
        0,
        0,
        1
      ],
      "type": "VEC4"
    },
    {
      "bufferView": 1,
      "componentType": 5126,
      "count": 770,
      "max": [
        0.48539680242538452,
        0.0099934348836541176
      ],
      "min": [
        0.48539680242538452,
        0.0099934348836541176
      ],
      "type": "VEC2"
    },
    {
      "bufferView": 0,
      "componentType": 5125,
      "count": 840,
      "max": [
        769
      ],
      "min": [
        0
      ],
      "type": "SCALAR"
    }
  ],
  "asset": {
    "extras": {
      "author": "nigromancer (https://sketchfab.com/nigromancer)",
      "license": "CC-BY-4.0 (http://creativecommons.org/licenses/by/4.0/)",
      "source": "https://sketchfab.com/models/06579cccf1f64a4f88d8be57bd73fafe",
      "title": "Cloud 1"
    },
    "generator": "Sketchfab-4.20.0",
    "version": "2.0"
  },
  "bufferViews": [
    {
      "buffer": 0,
      "byteLength": 3360,
      "byteOffset": 0,
      "name": "floatBufferViews",
      "target": 34963
    },
    {
      "buffer": 0,
      "byteLength": 6160,
      "byteOffset": 3360,
      "byteStride": 8,
      "name": "floatBufferViews",
      "target": 34962
    },
    {
      "buffer": 0,
      "byteLength": 18480,
      "byteOffset": 9520,
      "byteStride": 12,
      "name": "floatBufferViews",
      "target": 34962
    },
    {
      "buffer": 0,
      "byteLength": 12320,
      "byteOffset": 28000,
      "byteStride": 16,
      "name": "floatBufferViews",
      "target": 34962
    }
  ],
  "buffers": [
    {
      "byteLength": 40320,
      "uri": "scene.bin"
    }
  ],
  "materials": [
    {
      "doubleSided": true,
      "emissiveFactor": [
        0,
        0,
        0
      ],
      "name": "SM_Generic_Cloud_01_PolygonTown_01_A",
      "pbrMetallicRoughness": {
        "baseColorFactor": [
          1,
          1,
          1,
          1
        ],
        "metallicFactor": 0,
        "roughnessFactor": 0.95770514949999996
      }
    }
  ],
  "meshes": [
    {
      "name": "SM_Generic_Cloud_01_SM_Generic_Cloud_01_PolygonTown_01_A_0",
      "primitives": [
        {
          "attributes": {
            "NORMAL": 1,
            "POSITION": 0,
            "TANGENT": 2,
            "TEXCOORD_0": 3
          },
          "indices": 4,
          "material": 0,
          "mode": 4
        }
      ]
    }
  ],
  "nodes": [
    {
      "children": [
        1
      ],
      "name": "RootNode (gltf orientation matrix)",
      "rotation": [
        -0.70710678118654746,
        -0,
        -0,
        0.70710678118654757
      ]
    },
    {
      "children": [
        2
      ],
      "name": "RootNode (model correction matrix)"
    },
    {
      "children": [
        3
      ],
      "matrix": [
        1,
        0,
        0,
        0,
        0,
        0,
        1,
        0,
        0,
        -1,
        0,
        0,
        0,
        0,
        0,
        1
      ],
      "name": "SM_Generic_Cloud_01.fbx"
    },
    {
      "children": [
        4
      ],
      "name": "RootNode"
    },
    {
      "children": [
        5
      ],
      "name": "SM_Generic_Cloud_01"
    },
    {
      "mesh": 0,
      "name": "SM_Generic_Cloud_01_SM_Generic_Cloud_01_PolygonTown_01_A_0"
    }
  ],
  "samplers": [
    {
      "magFilter": 9729,
      "minFilter": 9987,
      "wrapS": 10497,
      "wrapT": 10497
    }
  ],
  "scene": 0,
  "scenes": [
    {
      "name": "OSG_Scene",
      "nodes": [
        0
      ]
    }
  ]
}

